<?xml version="1.0" standalone="no"?>
<!DOCTYPE svg PUBLIC "-//W3C//DTD SVG 20010904//EN"
 "http://www.w3.org/TR/2001/REC-SVG-20010904/DTD/svg10.dtd">
<svg version="1.0" xmlns="http://www.w3.org/2000/svg"
 width="920.000000pt" height="920.000000pt" viewBox="0 0 920.000000 920.000000"
 preserveAspectRatio="xMidYMid meet">
<metadata>
Created by potrace 1.14, written by Peter Selinger 2001-2017
</metadata>
<g transform="translate(0.000000,920.000000) scale(0.100000,-0.100000)"
fill="#000000" stroke="none">
<path d="M0 4600 l0 -4600 4600 0 4600 0 0 4600 0 4600 -4600 0 -4600 0 0
-4600z m2275 955 c92 -24 213 -86 283 -144 109 -91 200 -235 233 -371 19 -78
17 -250 -4 -330 -74 -281 -322 -491 -617 -524 -65 -7 -30 5 70 23 37 7 109 34
168 62 86 42 115 62 180 128 42 42 86 93 96 112 24 43 19 38 -38 -36 -58 -75
-141 -145 -226 -189 -72 -38 -198 -77 -245 -75 -18 1 -4 6 36 14 255 51 458
239 525 486 23 85 23 233 0 319 -10 36 -34 97 -54 135 -47 91 -172 218 -260
264 -35 18 -65 31 -67 29 -2 -2 26 -19 63 -38 90 -46 206 -162 254 -255 51
-99 71 -182 71 -295 0 -180 -56 -314 -189 -447 -45 -46 -87 -83 -94 -83 -10 0
-10 3 0 15 7 8 -14 -1 -45 -20 -32 -19 -67 -38 -78 -41 -16 -5 -17 -8 -6 -15
10 -7 7 -9 -11 -8 -14 1 -34 1 -45 0 -17 -1 -18 -3 -5 -12 12 -9 10 -10 -9 -5
-31 7 -87 -4 -71 -14 7 -4 -30 -6 -81 -3 -125 5 -198 13 -203 21 -2 4 32 3 76
-2 115 -14 241 9 355 63 111 54 232 170 281 273 108 221 69 471 -98 638 -36
36 -81 73 -100 83 -33 17 -34 17 -10 0 78 -55 153 -141 191 -218 80 -163 79
-316 -3 -485 -35 -72 -139 -185 -198 -215 -39 -20 -35 -15 33 40 138 110 216
314 187 486 -33 193 -179 355 -365 404 -68 17 -189 19 -255 4 -181 -42 -324
-195 -353 -378 -21 -141 25 -268 143 -392 80 -84 123 -160 118 -211 -9 -94
-225 -94 -330 0 -91 83 -177 235 -204 363 -24 111 -15 271 20 374 84 246 290
425 556 481 80 17 242 12 325 -11z m-1548 -491 l338 -507 3 507 2 506 80 0 80
0 0 -650 0 -650 -85 0 -85 0 -337 506 -338 507 -3 -507 -2 -506 -80 0 -80 0 0
650 0 650 85 0 85 0 337 -506z m2886 496 c129 -13 182 -34 243 -94 67 -67 97
-143 98 -246 1 -97 -23 -165 -79 -228 -50 -55 -126 -97 -208 -114 -31 -7 -57
-15 -57 -18 0 -3 16 -14 36 -25 63 -34 150 -141 284 -351 71 -112 130 -206
130 -209 0 -3 -47 -5 -104 -5 l-104 0 -101 158 c-138 218 -218 328 -263 364
-58 45 -114 58 -259 58 l-129 0 -2 -287 -3 -288 -82 -3 -83 -3 0 651 0 650
298 0 c163 0 337 -5 385 -10z m1547 -70 l0 -80 -380 0 -380 0 0 -195 0 -195
355 0 355 0 0 -75 0 -75 -355 0 -355 0 0 -220 0 -220 395 0 395 0 0 -80 0 -80
-480 0 -480 0 0 650 0 650 465 0 465 0 0 -80z m440 -185 l0 -265 340 0 340 0
0 265 0 266 83 -3 82 -3 0 -645 0 -645 -82 -3 -83 -3 0 306 0 305 -340 0 -340
0 0 -305 0 -306 -82 3 -83 3 -3 635 c-1 349 0 641 3 648 3 8 30 12 85 12 l80
0 0 -265z m1330 -385 l0 -650 -85 0 -85 0 0 650 0 650 85 0 85 0 0 -650z m468
78 l2 -568 315 0 315 0 0 -80 0 -80 -402 2 -403 3 -3 635 c-1 349 0 641 3 648
3 9 27 12 87 10 l83 -3 3 -567z m1002 2 l0 -570 318 -2 317 -3 0 -75 0 -75
-402 -3 -403 -2 0 650 0 650 85 0 85 0 0 -570z m-5950 -665 c0 -6 -96 -55
-107 -55 -9 0 87 57 100 59 4 1 7 -1 7 -4z m-203 -91 c-3 -3 -12 -4 -19 -1 -8
3 -5 6 6 6 11 1 17 -2 13 -5z m-134 -21 c-7 -2 -19 -2 -25 0 -7 3 -2 5 12 5
14 0 19 -2 13 -5z m10 -20 c-13 -2 -35 -2 -50 0 -16 2 -5 4 22 4 28 0 40 -2
28 -4z m1111 -337 c66 -27 100 -107 49 -114 -16 -2 -23 2 -23 13 0 9 -11 27
-25 40 -19 20 -34 25 -72 25 -61 0 -93 -21 -93 -60 0 -35 26 -51 114 -71 108
-24 158 -78 137 -148 -14 -48 -45 -76 -100 -91 -79 -21 -167 6 -201 63 -26 42
-25 63 2 70 12 4 22 5 23 4 0 -1 7 -15 15 -32 44 -86 210 -82 210 5 0 39 -24
55 -116 80 -97 26 -138 60 -138 114 0 91 115 145 218 102z m431 -5 c51 -24 81
-56 100 -110 46 -131 -16 -264 -137 -291 -133 -30 -239 60 -239 204 0 99 32
159 103 195 53 26 120 27 173 2z m1701 0 c104 -47 144 -194 84 -310 -38 -75
-133 -114 -220 -91 -65 18 -124 80 -139 147 -13 65 0 143 33 194 48 72 156 99
242 60z m818 5 c66 -27 100 -107 49 -114 -16 -2 -23 2 -23 13 0 9 -11 27 -25
40 -19 20 -34 25 -72 25 -61 0 -93 -21 -93 -60 0 -35 26 -51 114 -71 75 -16
117 -45 134 -91 13 -33 12 -41 -4 -75 -27 -53 -75 -78 -149 -77 -72 1 -118 22
-145 67 -26 41 -25 64 1 72 11 4 21 5 22 3 1 -1 9 -16 17 -33 44 -86 210 -82
210 5 0 39 -24 55 -116 80 -97 26 -138 60 -138 114 0 91 115 145 218 102z
m-2284 -176 l0 -180 105 0 105 0 0 -25 0 -25 -130 0 -130 0 0 205 0 205 25 0
25 0 0 -180z m330 26 c0 -149 1 -156 24 -183 21 -24 31 -28 80 -28 44 0 60 5
78 23 22 21 23 32 26 182 l3 160 31 0 30 0 -4 -157 c-5 -177 -12 -201 -67
-236 -45 -28 -140 -30 -188 -4 -58 31 -67 63 -71 240 l-4 157 31 0 31 0 0
-154z m650 129 c0 -24 -2 -25 -65 -25 l-65 0 0 -180 0 -180 -30 0 -30 0 0 180
0 180 -65 0 c-63 0 -65 1 -65 25 l0 25 160 0 160 0 0 -25z m120 -180 l0 -205
-25 0 -25 0 0 205 0 205 25 0 25 0 0 -205z m711 51 l104 -155 3 155 3 154 24
0 25 0 0 -205 0 -205 -27 0 c-25 0 -40 19 -133 158 l-105 157 -3 -157 -3 -158
-24 0 -25 0 0 205 0 205 28 0 c25 0 39 -17 133 -154z m3327 -88 l3 -28 -1280
0 -1281 0 0 23 c0 13 3 27 7 30 3 4 578 6 1277 5 l1271 -3 3 -27z m-6243 -18
l0 -25 -1292 -3 -1293 -2 0 30 0 30 1293 -2 1292 -3 0 -25z"/>
<path d="M2073 5503 c20 -2 54 -2 75 0 20 2 3 4 -38 4 -41 0 -58 -2 -37 -4z"/>
<path d="M2218 5493 c6 -2 18 -2 25 0 6 3 1 5 -13 5 -14 0 -19 -2 -12 -5z"/>
<path d="M2290 5475 c46 -18 64 -17 25 0 -16 8 -37 14 -45 14 -8 0 1 -7 20
-14z"/>
<path d="M2565 5250 c10 -11 20 -20 23 -20 3 0 -3 9 -13 20 -10 11 -20 20 -23
20 -3 0 3 -9 13 -20z"/>
<path d="M2701 4984 c0 -11 3 -14 6 -6 3 7 2 16 -1 19 -3 4 -6 -2 -5 -13z"/>
<path d="M2782 4950 c0 -19 2 -27 5 -17 2 9 2 25 0 35 -3 9 -5 1 -5 -18z"/>
<path d="M2713 4915 c0 -22 2 -30 4 -17 2 12 2 30 0 40 -3 9 -5 -1 -4 -23z"/>
<path d="M2713 4805 c0 -22 2 -30 4 -17 2 12 2 30 0 40 -3 9 -5 -1 -4 -23z"/>
<path d="M2782 4810 c0 -19 2 -27 5 -17 2 9 2 25 0 35 -3 9 -5 1 -5 -18z"/>
<path d="M2766 4729 c-8 -42 0 -50 9 -9 4 17 5 34 2 36 -2 3 -7 -10 -11 -27z"/>
<path d="M2701 4734 c0 -11 3 -14 6 -6 3 7 2 16 -1 19 -3 4 -6 -2 -5 -13z"/>
<path d="M2736 4635 c-9 -26 -7 -32 5 -12 6 10 9 21 6 23 -2 3 -7 -2 -11 -11z"/>
<path d="M2652 4595 c-12 -25 -20 -45 -17 -45 7 0 47 81 43 86 -3 2 -14 -17
-26 -41z"/>
<path d="M2711 4573 c-10 -26 -10 -27 4 -9 8 11 15 23 15 28 0 15 -7 8 -19
-19z"/>
<path d="M2605 4514 c-9 -15 -12 -23 -6 -20 11 7 35 46 28 46 -3 0 -12 -12
-22 -26z"/>
<path d="M2530 4423 l-55 -58 58 55 c31 30 57 56 57 57 0 8 -10 -1 -60 -54z"/>
<path d="M3100 5210 l0 -210 230 0 c126 0 252 5 279 11 103 22 170 102 171
202 0 60 -18 103 -61 145 -56 54 -101 62 -376 62 l-243 0 0 -210z"/>
<path d="M3495 3799 c-42 -37 -60 -93 -51 -163 6 -58 26 -90 69 -116 64 -39
154 -15 189 51 23 43 24 138 1 186 -22 47 -66 73 -125 73 -39 0 -54 -6 -83
-31z"/>
<path d="M5206 3810 c-41 -26 -58 -63 -63 -134 -3 -46 0 -70 14 -96 37 -70
117 -98 187 -65 96 46 104 240 12 296 -41 25 -112 25 -150 -1z"/>
</g>
</svg>
