<?xml version="1.0" standalone="no"?>
<!DOCTYPE svg PUBLIC "-//W3C//DTD SVG 20010904//EN"
 "http://www.w3.org/TR/2001/REC-SVG-20010904/DTD/svg10.dtd">
<svg version="1.0" xmlns="http://www.w3.org/2000/svg"
 width="860.000000pt" height="860.000000pt" viewBox="0 0 860.000000 860.000000"
 preserveAspectRatio="xMidYMid meet">
<metadata>
Created by potrace 1.16, written by Peter Selinger 2001-2019
</metadata>
<g transform="translate(0.000000,860.000000) scale(0.100000,-0.100000)"
fill="#0A66C2" stroke="none">
<path d="M4106 8319 c-367 -20 -836 -118 -1166 -244 -234 -89 -523 -227 -682
-326 -133 -82 -344 -231 -463 -326 -251 -201 -586 -562 -764 -823 -123 -180
-321 -538 -396 -715 -71 -168 -168 -471 -219 -686 -82 -342 -121 -839 -92
-1184 35 -415 83 -655 206 -1027 158 -477 423 -946 759 -1348 128 -152 316
-336 407 -397 119 -81 155 -98 276 -133 57 -16 155 -47 218 -69 156 -53 247
-65 444 -58 253 9 455 70 603 181 90 68 117 127 116 255 -1 254 -145 573 -401
891 -43 52 -160 178 -263 280 -102 102 -209 214 -239 250 -131 159 -324 489
-404 691 -36 93 -113 380 -131 491 -23 143 -38 390 -32 533 6 159 62 497 103
620 41 125 169 423 226 525 119 213 353 494 542 653 280 234 398 309 666 422
286 121 373 146 649 189 217 34 338 40 566 28 588 -32 1091 -212 1545 -551
140 -104 441 -401 529 -521 35 -47 99 -146 143 -220 240 -402 326 -637 414
-1140 26 -147 26 -547 0 -740 -65 -490 -223 -925 -464 -1285 -141 -210 -253
-347 -417 -510 -209 -210 -408 -362 -652 -501 -56 -32 -100 -60 -98 -62 7 -7
186 71 284 123 556 298 1056 860 1311 1473 124 299 203 621 231 937 17 188 6
565 -20 725 -40 240 -105 485 -176 665 -79 203 -237 489 -373 679 -289 401
-715 755 -1158 962 -95 45 -331 139 -407 164 -21 6 -37 14 -35 16 2 2 52 -10
110 -26 548 -153 1100 -523 1478 -992 221 -274 421 -636 522 -943 99 -305 142
-510 165 -797 44 -533 -52 -1085 -275 -1583 -258 -577 -678 -1071 -1217 -1432
-365 -245 -794 -423 -1232 -512 -281 -57 -369 -65 -718 -66 -344 0 -452 10
-748 71 -66 13 -122 22 -124 20 -2 -2 21 -16 52 -31 30 -16 55 -32 55 -36 0
-17 242 -68 455 -95 172 -23 604 -26 765 -6 507 62 963 203 1350 416 146 81
423 267 555 372 128 103 364 336 484 479 409 489 683 1105 771 1739 57 403 44
795 -39 1196 -103 497 -346 1007 -678 1420 -128 160 -379 414 -508 515 -123
96 -149 121 -70 67 167 -115 432 -360 573 -529 515 -620 792 -1378 792 -2173
0 -405 -54 -746 -176 -1115 -125 -380 -337 -772 -579 -1075 -262 -328 -539
-577 -905 -813 -107 -70 -469 -253 -595 -303 -245 -95 -517 -171 -751 -209
-372 -60 -859 -60 -1205 0 -50 9 -94 14 -97 11 -3 -4 -1 -6 5 -6 5 0 60 -9
122 -20 534 -96 1053 -75 1596 65 625 162 1226 510 1681 976 193 197 294 323
451 559 330 499 521 1046 578 1659 74 795 -123 1601 -551 2258 -230 354 -459
607 -784 869 -470 379 -1061 634 -1695 730 -168 26 -202 28 -505 28 -288 1
-342 -2 -475 -22 -159 -24 -270 -44 -374 -68 -106 -25 -79 -9 43 25 265 73
520 105 836 105 387 1 734 -52 1070 -163 533 -177 946 -416 1354 -787 369
-335 705 -834 909 -1349 115 -290 194 -628 229 -970 25 -252 8 -681 -38 -950
-40 -237 -152 -620 -239 -822 -218 -501 -499 -895 -924 -1295 -268 -253 -678
-517 -1036 -666 -371 -155 -657 -232 -1047 -284 -136 -18 -212 -22 -458 -22
-309 0 -442 12 -725 64 -60 11 -110 18 -112 16 -6 -6 204 -54 332 -76 435 -76
1004 -62 1430 36 241 56 579 170 786 267 535 250 1055 665 1398 1116 230 303
364 530 502 853 182 425 275 836 299 1323 16 310 -10 641 -75 955 -80 388
-252 822 -465 1175 -289 478 -620 836 -1071 1157 -279 199 -700 408 -1019 508
-176 55 -195 62 -150 54 109 -19 429 -138 652 -242 444 -208 928 -581 1243
-957 27 -33 69 -82 92 -108 24 -27 79 -100 123 -162 369 -520 607 -1136 686
-1775 21 -172 29 -568 15 -746 -101 -1248 -779 -2354 -1842 -3005 -598 -365
-1301 -569 -1972 -570 -109 -1 -196 -3 -193 -6 9 -9 339 -33 464 -33 218 0
609 73 912 171 440 143 813 343 1235 663 190 144 482 438 680 686 226 282 497
786 604 1120 90 282 171 666 201 955 24 231 8 614 -40 939 -66 451 -152 712
-391 1189 -196 392 -346 600 -674 936 -349 357 -570 524 -969 731 -379 197
-653 299 -993 370 -416 87 -713 110 -1107 89z"/>
</g>
</svg>
